<?xml version="1.0" encoding="utf-8" ?>
<svg baseProfile="full" height="704px" version="1.1" width="1280px" xmlns="http://www.w3.org/2000/svg" xmlns:ev="http://www.w3.org/2001/xml-events" xmlns:xlink="http://www.w3.org/1999/xlink"><defs /><polygon fill="lightblue" points="583,680" stroke="white" stroke-width="1" /><polygon fill="lightblue" points="720,660" stroke="white" stroke-width="1" /><polygon fill="lightblue" points="728,657 728,658 729,658" stroke="white" stroke-width="1" /><polygon fill="lightblue" points="718,153 722,153" stroke="white" stroke-width="1" /><polygon fill="lightblue" points="1087,149 728,55 740,157 669,149 669,289 731,296 737,410 672,414 668,560 728,553 728,655 971,577 969,196 1086,213" stroke="white" stroke-width="1" /><polygon fill="lightblue" points="559,40 136,88 175,621 215,623 215,171 252,167 252,627 567,674" stroke="white" stroke-width="1" /><polygon fill="lightblue" points="567,39 569,39" stroke="white" stroke-width="1" /></svg>